<?xml version="1.0" standalone="no"?>
<!DOCTYPE svg PUBLIC "-//W3C//DTD SVG 20010904//EN"
 "http://www.w3.org/TR/2001/REC-SVG-20010904/DTD/svg10.dtd">
<svg version="1.0" xmlns="http://www.w3.org/2000/svg"
 width="300.000000pt" height="300.000000pt" viewBox="0 0 300.000000 300.000000"
 preserveAspectRatio="xMidYMid meet">
<metadata>
Created by potrace 1.10, written by Peter Selinger 2001-2011
</metadata>
<g transform="translate(0.000000,300.000000) scale(0.100000,-0.100000)"
fill="#000000" stroke="none">
<path d="M997 2080 c-33 -39 -62 -117 -81 -220 -9 -45 -18 -85 -21 -90 -3 -4
-34 -20 -70 -36 -36 -16 -65 -35 -65 -42 0 -17 38 -10 93 18 44 23 44 23 17
-80 -29 -111 5 -126 44 -19 25 68 71 136 108 159 38 23 38 23 58 10 12 -8 12
-20 -4 -95 -16 -78 -16 -88 -2 -110 22 -34 68 -41 115 -18 36 18 38 18 67 0
44 -27 139 -10 191 36 21 19 21 19 32 -2 30 -56 115 -63 177 -16 l35 27 23
-25 c43 -46 111 -47 160 -2 24 22 26 23 36 6 13 -25 64 -45 96 -37 42 11 92
67 106 120 11 42 16 47 52 57 50 14 115 74 97 92 -9 9 -17 5 -34 -15 -38 -45
-107 -66 -107 -33 0 26 -38 55 -74 55 -64 0 -145 -84 -146 -152 0 -21 -10 -35
-42 -58 -47 -35 -96 -39 -121 -12 -23 25 -21 34 9 63 70 64 164 257 164 336 0
77 -68 98 -118 37 -47 -57 -129 -339 -108 -372 6 -10 -38 -54 -71 -71 -33 -17
-78 -13 -96 7 -23 26 -22 29 22 78 70 75 141 239 141 324 0 80 -43 94 -102 33
-68 -72 -116 -202 -121 -330 -3 -72 -15 -88 -86 -112 -33 -11 -101 -15 -101
-7 0 3 26 31 59 63 67 67 83 109 57 148 -13 19 -25 25 -53 25 -68 0 -142 -112
-126 -191 4 -22 0 -28 -25 -38 -70 -29 -92 1 -70 95 18 76 12 110 -23 123 -47
17 -99 -15 -157 -94 l-21 -30 8 31 c5 17 33 54 64 83 72 68 121 159 121 227 1
29 -5 58 -13 67 -22 27 -66 21 -94 -13z m74 -21 c24 -46 -29 -165 -107 -239
-27 -27 -35 -30 -31 -15 4 11 13 50 21 87 19 84 41 136 68 165 27 28 34 29 49
2z m577 -61 c6 -68 -58 -218 -127 -298 l-30 -35 -1 38 c-1 96 53 251 108 310
33 34 46 30 50 -15z m229 26 c9 -24 -15 -123 -46 -189 -25 -54 -109 -170 -117
-163 -6 6 25 145 51 225 35 111 93 177 112 127z m-519 -264 c3 -33 -26 -79
-77 -119 l-41 -33 0 42 c0 45 30 113 57 129 30 18 58 9 61 -19z m677 20 c-9
-15 22 -60 40 -60 19 0 19 -24 -1 -66 -31 -66 -88 -91 -126 -57 -34 31 -15
119 38 168 26 25 61 35 49 15z"/>
<path d="M1720 1448 c-11 -13 -32 -61 -46 -108 -66 -221 -66 -222 -110 -268
-52 -54 -78 -54 -82 1 -2 21 6 67 18 102 20 61 20 85 0 85 -5 0 -18 -29 -30
-64 -36 -108 -100 -175 -157 -164 -27 5 -28 66 -3 170 20 78 25 88 45 88 46 0
85 13 85 28 0 12 -10 14 -50 10 -27 -3 -50 -4 -50 -3 0 2 7 19 15 38 19 46 19
67 1 67 -9 0 -22 -22 -32 -55 -17 -54 -18 -55 -56 -55 -27 0 -38 -4 -38 -15 0
-10 10 -15 34 -15 l34 0 -15 -57 c-42 -164 -183 -276 -183 -146 0 14 7 56 17
94 9 38 13 72 9 77 -13 12 -33 -26 -46 -89 -16 -74 -72 -143 -112 -137 -32 4
-34 35 -4 102 l25 57 -22 8 c-12 5 -35 14 -50 20 -17 7 -32 23 -39 41 -7 20
-16 30 -27 28 -12 -2 -18 -19 -23 -65 -8 -76 -38 -147 -80 -190 -36 -37 -30
-55 10 -31 36 21 78 91 94 153 7 28 13 51 14 53 1 1 17 -5 35 -15 19 -10 35
-18 37 -19 1 0 -7 -26 -18 -58 -21 -63 -16 -97 19 -116 27 -14 61 -5 94 26 30
28 37 30 37 9 0 -8 11 -22 25 -31 35 -23 85 -4 130 49 26 30 35 36 30 20 -8
-29 10 -62 41 -73 29 -11 85 8 121 42 20 18 23 19 23 5 0 -23 36 -57 60 -57
10 0 35 14 53 30 19 17 37 30 39 30 3 0 3 -13 0 -30 -5 -33 12 -41 26 -12 5 9
15 40 21 67 14 57 63 115 125 147 35 18 40 18 54 4 14 -14 14 -17 -2 -35 -10
-11 -41 -28 -70 -37 -28 -9 -52 -18 -54 -19 -1 -1 16 -30 39 -64 52 -79 99
-94 159 -51 25 18 26 17 54 -7 21 -18 35 -23 54 -18 33 8 82 43 82 58 1 7 7 0
16 -15 18 -35 48 -51 77 -42 27 8 97 73 97 91 0 22 -16 15 -59 -28 -44 -45
-59 -46 -79 -6 -11 23 -10 37 8 95 11 38 20 77 20 86 0 20 -19 21 -26 1 -5
-12 -10 -10 -26 10 -24 30 -49 32 -97 4 -44 -25 -76 -69 -99 -138 -30 -92 -96
-107 -145 -32 -28 42 -27 45 14 54 35 9 79 54 79 82 0 25 -29 55 -54 55 -22 0
-69 -24 -85 -44 -8 -9 -18 -16 -23 -16 -5 0 6 19 26 43 39 48 86 141 86 173 0
46 -55 60 -90 22z m52 -39 c-3 -31 -46 -117 -77 -155 l-24 -29 20 64 c29 96
57 153 71 148 7 -2 12 -15 10 -28z m326 -213 c11 -42 -12 -98 -55 -136 -37
-33 -64 -38 -83 -15 -35 42 7 147 71 177 41 20 57 14 67 -26z"/>
<path d="M1532 1431 c-21 -13 -10 -46 16 -49 27 -4 40 22 22 43 -14 17 -20 18
-38 6z"/>
<path d="M1132 1388 c-13 -13 2 -38 24 -38 20 0 27 19 14 35 -15 18 -22 19
-38 3z"/>
</g>
</svg>
